<svg viewBox="0 0 20 20" fill="none" xmlns="http://www.w3.org/2000/svg">
<path d="M8.5 16C6.83333 16 5.375 15.4167 4.275 14.425C3.175 13.4333 2.625 12.1833 2.625 10.75C2.625 9.31667 3.175 8.06667 4.275 7.075C5.375 6.08333 6.83333 5.5 8.5 5.5C10.1667 5.5 11.6875 6.08333 12.8125 7.075C13.9135 8.06667 14.4375 9.31667 14.4375 10.75C14.4375 11.1833 14.3958 11.6458 14.3125 12.0625C14.2292 12.4792 14.125 12.9167 14 13.4375L18.5 17.9375C18.6667 18.1042 18.75 18.2708 18.75 18.5C18.75 18.7292 18.6667 18.8958 18.5 19.0625C18.3333 19.2292 18.1042 19.3125 17.8125 19.3125C17.4792 19.3125 17.2292 19.2292 17.0625 19.0625L12.5625 14.5625C12.0208 14.8125 11.4583 14.9792 10.875 15.0625C10.2917 15.1458 9.75 15.1875 8.5 16ZM8.5 14.25C9.75 14.25 10.8125 13.8125 11.6875 12.9375C12.5625 12.0625 13 10.9792 13 9.75C13 8.52083 12.5625 7.4375 11.6875 6.5625C10.8125 5.6875 9.75 5.25 8.5 5.25C7.25 5.25 6.1875 5.6875 5.3125 6.5625C4.4375 7.4375 4 8.52083 4 9.75C4 10.9792 4.4375 12.0625 5.3125 12.9375C6.1875 13.8125 7.25 14.25 8.5 14.25Z" fill="#434654"/>
</svg>
